<?xml version="1.0" encoding="UTF-8"?>
<svg id="Layer_1" data-name="Layer 1" xmlns="http://www.w3.org/2000/svg" viewBox="0 0 153.27 67.2">
  <defs>
    <style>
      .cls-1 {
        fill: #c5904a;
      }
    </style>
  </defs>
  <g>
    <g>
      <path class="cls-1" d="m35.77,13.86c-.27-.08-.64-.16-1.09-.17-.55-.02-1.01.08-1.32.17-.13.13-.25.25-.38.38v10.08s.21.92-.43,1.56c-.29.29-.75.43-1.37.43h-.87c-.55.02-1-.06-1.3-.14-.36-.09-.74-.18-1.14-.47-.17-.12-.42-.29-.62-.61-.21-.33-.32-.73-.32-1.2v-6.43c-.13-.13-.25-.25-.38-.38-.29-.08-.7-.17-1.2-.17-.5,0-.92.09-1.21.17-.13.13-.25.25-.38.38v6.84c0,.75-.14,1.27-.43,1.56s-.75.43-1.37.43h-.87c-.59.02-1.07-.07-1.38-.16-.33-.09-.68-.18-1.06-.45-.17-.12-.42-.29-.62-.61-.21-.33-.32-.73-.32-1.2v-6.43c-.13-.13-.25-.25-.38-.38-.3-.07-.69-.13-1.13-.14-.51,0-.95.06-1.28.14-.13.13-.25.25-.38.38v10.98c.02.35.17,2.65-1.54,4.02-1.03.83-2.34,1.24-3.95,1.24-.65,0-1.32-.09-1.99-.26-.68-.18-1.3-.47-1.88-.88-.58-.41-1.05-.98-1.41-1.69-.36-.71-.55-1.61-.55-2.69s.21-2.21.62-3.23c.54-1.33,1.35-1.71,1.3-2.59-.01-.21-.07-.38-.11-.49-.14-.2-.45-.6-1.01-.87-.43-.21-.83-.25-1.06-.26-.18-.09-.32-.09-.4-.08-.2.02-.74.17-1.83,3.56-.21.65-.32.98-.42,1.43-.21.92-.32,1.87-.32,2.84,0,1.33.21,2.5.64,3.52.43,1.02,1.02,1.87,1.79,2.58.76.7,1.69,1.23,2.78,1.6,1.09.36,2.31.55,3.67.55,2.86,0,5.05-.73,6.56-2.18,1.52-1.45,2.28-3.47,2.28-6.05v-.45c.18.2.35.35.48.45.1.07.38.28.8.45.05.02.25.1.55.17.28.07.68.14,1.18.13,0,0,.48,0,.49,0,.05,0,1.27,0,1.32,0,.14,0,.34,0,.58-.02.37-.03.78-.06,1.28-.22.31-.1.53-.21.6-.25.1-.05.37-.19.63-.41.41-.34.66-.74.82-1.06.13.28.39.71.84,1.09.17.14.35.27.55.37.6.33,1.3.49,2.11.49h1.81c.31.02.76.01,1.27-.1.28-.06,1.34-.3,2.11-1.05,1.35-1.3,1.05-3.36,1.02-3.59,0-.54,0-1.09,0-1.63,0-1.5,0-3.01,0-4.51,0-1.37,0-2.75,0-4.12-.13-.13-.25-.25-.38-.38Z"/>
      <path class="cls-1" d="m47.13,13.86c-.25-.1-.68-.23-1.22-.23-.52,0-.94.13-1.19.23-.13.13-.25.25-.38.38v5.54c0,1.68,0,3.36,0,5.04,0,1.93,0,3.86,0,5.78.02.27.01.68-.12,1.15-.07.24-.24.84-.72,1.33-.82.82-2,.74-2.21.72h-.86c-.13.13-.25.25-.38.38v2.18l.38.38h1.02c1.98,0,3.48-.53,4.51-1.58.76-.78,1.08-1.74,1.2-2.08.37-1.06.38-1.98.34-2.54-.03-.49,0-.86,0-.93-.03-1-.05-5.05,0-15.35-.13-.13-.25-.25-.38-.38Z"/>
      <path class="cls-1" d="m78.02,15.12c-1.28-1.29-3.03-1.94-5.27-1.94-1.03,0-1.97.16-2.84.47-.86.31-1.62.8-2.28,1.47-.65.66-1.16,1.52-1.52,2.56-.36,1.04-.55,2.28-.55,3.7,0,2.06.36,3.7,1.09,4.93h-4.25s-.1,0-.14,0c-.04,0-.08,0-.12,0h-1.65c-.63,0-1.08-.14-1.37-.43-.29-.29-.43-.81-.43-1.56V4.04c-.13-.13-.25-.25-.38-.38-.26-.1-.68-.22-1.21-.22-.52,0-.94.12-1.2.22-.13.13-.25.25-.38.38v20.46c-.06.91.1,1.62.24,2.06.15.51.31,1.03.78,1.54.5.54,1.07.75,1.43.89.77.29,1.48.3,1.95.26h2.22s.09,0,.14,0c.04,0,.08,0,.12,0h10.34c1.1,0,2.1-.14,2.99-.43.89-.29,1.64-.74,2.26-1.35s1.09-1.42,1.43-2.43c.34-1,.51-2.22.51-3.65,0-2.88-.64-4.97-1.92-6.26Zm-2.2,10.08c-.64.74-1.66,1.11-3.07,1.11s-2.43-.39-3.06-1.18c-.64-.79-.96-2.11-.96-3.97,0-1.55.34-2.78,1.02-3.69.68-.9,1.68-1.35,3.01-1.35,1.4,0,2.43.46,3.07,1.39.64.93.96,2.22.96,3.87,0,1.81-.32,3.08-.96,3.82Z"/>
      <path class="cls-1" d="m67.24,10.1h2.56v-3.5c-.24-.11-.67-.27-1.23-.27-.61,0-1.08.16-1.33.27v3.5Z"/>
    </g>
    <g>
      <path class="cls-1" d="m7.9,42.1c1.88-.64,3.48-.12,5.06.41.85.28,1.46.5,2.16,1.1.8.7,1.26,1.53,1.51,2.07v-2.27c-.09-1.45-.77-2.18-2.04-2.18-5.29.02-8.72.02-10.27,0-1.08.06-1.62.61-1.62,1.64v23.49h2.28c.58-.06.82-.55.72-1.45v-9.06c.05-.88.38-1.33.98-1.33h5.84c.23-.04.35-.22.35-.55,0-.16-.18-.26-.53-.3h-6.64c.03-3.45.05-6.9.08-10.35.84-.71,1.6-1.05,2.12-1.22Z"/>
      <path class="cls-1" d="m25.78,40.76c-.16,0-.29.02-.4.06-.3.08-.48.23-.53.44l-7.17,25.1h1.14c.25,0,.47-.11.66-.32.09-.08.22-.28.4-.6l1.43-5.71h7.11c.41,0,.72.11.93.32.14.17.31.52.5,1.04.19.53.49,1.43.88,2.71.48,1.87,1.05,2.73,1.73,2.56h3.08l-8.63-25.6h-1.14Zm3.4,17.39c.02.08.03.16.03.2,0,.16-.24.35-.56.44h-7.09c1.23-4.55,2.46-9.1,3.7-13.64,1.28,4.26,2.56,8.53,3.84,12.79.04.07.06.14.08.21Z"/>
      <path class="cls-1" d="m49.53,41.58c-.09-.02-1.05-.13-2.89-.32-.39-.04-1.8-.06-4.25-.06-.21.02-.4.07-.56.16-.37.23-.58.64-.64,1.23v23.77h2.34c.24-.03.43-.12.57-.27.34-.39.29-.94.28-.99v-1.93c0-1.9,0-3.8,0-5.69,0-.23,0-.45,0-.68h2.31c.09,0,.19.03.29.09.23.13.43.37.61.73.51,1.28,1.02,2.56,1.52,3.85.34.93,1.06,2.55,2.53,3.82.56.48,1.1.81,1.57,1.04.62,0,1.23,0,1.85,0-1.81-3.22-3.62-6.44-5.43-9.65,1.1-.38,2.03-.86,2.81-1.45,1.86-1.43,2.79-3.31,2.79-5.65v-.25c0-2.15-.61-4.02-1.83-5.62-.78-1.01-2.07-1.72-3.88-2.12Zm1.51,11.9c-.92,1.52-1.94,2.29-3.05,2.34-1.34.17-2.55.21-3.61.13v-12.91c0-.65.34-1.01,1.01-1.07,1.08,0,1.99.13,2.73.38,1.2.42,2.2,1.3,3,2.64.8,1.34,1.19,2.76,1.19,4.28,0,1.41-.42,2.82-1.27,4.23Z"/>
      <path class="cls-1" d="m63.82,41.23h-1.99c-.3.15-.59.3-.89.45.34,4.91.49,10.32.3,16.15-.1,2.99-.27,5.85-.5,8.56h1.94c.14-.02.33-.06.53-.19,0,0,.07-.05.14-.1.76-.66.49-2.58.49-2.58-.21-1.49-.18-9.82-.02-22.29Z"/>
      <path class="cls-1" d="m80.35,55.09c-.74-.72-2.05-1.69-3.93-2.94-1.68-1.12-2.81-2.17-3.4-3.16-.28-.48-.42-1.16-.42-2.02,0,0,0-.47.08-.91.35-1.86,4.51-4.94,7.73-3.76.38.14,1.12.42,1.77,1.23.64.8.87,1.69.96,2.15-.06-1.3-.11-2.61-.17-3.91-.35-.36-.85-.59-1.49-.69-.04-.02-.59-.07-1.67-.16h-1.22c-1.1,0-2.01.06-2.73.19-1.8.27-3.19.88-4.14,1.83-1.4,1.35-2.1,2.92-2.1,4.7,0,1.31.15,2.28.45,2.94.35.82.94,1.61,1.75,2.37.73.72,2.12,1.69,4.19,2.94,1.24.76,2.15,1.54,2.73,2.34.17.24.31.49.41.76,0,0,.31.77.3,1.67-.02,1.48-1.42,3.03-2.66,3.79-.43.26-2.15,1.28-4.24.49-2.13-.8-3.05-2.88-3.22-3.26v2.97c.32.49.85,1.14,1.67,1.67,3.05,1.97,6.85.12,7.03.03,3.19-1.62,5.21-5.56,4.31-8.39-.36-1.12-1.1-1.96-2.02-2.84Z"/>
    </g>
  </g>
  <g>
    <path class="cls-1" d="m90.19,24.67c2.2-.02,4.39-.03,6.59-.05,1.96-.02,3.91,0,5.87-.08.98-.04,1.81.37,2.55,1.15,1.29,1.34,2.2,3.09,3.04,4.92,1.17,2.55,2.12,5.24,2.92,8.02.08.29.18.45.32.54.18.11.37.1.42.09.44-.03,6.8-.07,15.61-.12-1.89,3.54-3.78,7.08-5.67,10.61-9.48.16-16.35.28-16.87.31-.06,0-.28.02-.49-.11-.3-.18-.39-.53-.42-.63-.16-.57-2.06-6.27-4.76-14.34-.52-1.85-2.09-6.44-6.47-9.11-.9-.55-1.8-.94-2.64-1.22Z"/>
    <path class="cls-1" d="m153.22,24.68c-.83.27-1.73.66-2.63,1.21-4.39,2.66-5.96,7.26-6.48,9.11-2.7,8.06-4.59,13.77-4.75,14.33-.03.1-.12.45-.43.64-.2.12-.43.1-.49.1-.52-.02-6.66-.18-15.12-.4,1.91-3.46,3.81-6.92,5.7-10.38.93,0,1.88-.01,2.81-.01,2.12-4.54,4.25-9.06,6.38-13.59.36-.38.93-.88,1.73-1.07.39-.09.71-.08.82-.08,1.95.08,3.91.06,5.86.08,2.2.02,4.4.03,6.59.06Z"/>
    <path class="cls-1" d="m120.32,15.26c-7.23.04-14.47.07-21.7.11-2.73,2.57-5.45,5.14-8.18,7.71,8.1-.21,16.36-.27,24.78-.15,1.67.02,3.34.05,5,.09.03-2.59.07-5.17.1-7.76Z"/>
    <path class="cls-1" d="m153.27,23.03c-8.25-.06-16.52-.1-24.78-.16-1.74,0-3.48-.01-5.22-.01.04-2.48.08-4.97.11-7.46,7.24.07,14.48.13,21.72.2,2.72,2.47,5.45,4.94,8.16,7.42Z"/>
    <path class="cls-1" d="m121.14,67.2c-6.36-5.74-16.17-14.63-16.38-15.14-.14-.32-.03-.44-.03-.44.05-.06.14-.08.3-.08,3.34-.01,6.69-.04,10.03-.07.22,0,.38.02.5.34,1.84,5.08,3.7,10.15,5.55,15.23.01.04.02.08.03.17Z"/>
    <path class="cls-1" d="m138.63,52.09c-.43.68-10.06,9.43-16.35,15.11.01-.09.02-.13.03-.17,1.85-5.08,3.71-10.14,5.55-15.23.12-.33.28-.34.51-.34,3.34.02,6.68.06,10.03.07.08,0,.13,0,.19.02-.01.18.01.36.04.54Z"/>
    <path class="cls-1" d="m97.88,11.16c-3.99.33-4.25.6-4.58,4.58-.33-3.99-.6-4.25-4.58-4.58,3.99-.33,4.25-.6,4.58-4.58.33,3.99.6,4.25,4.58,4.58Z"/>
    <path class="cls-1" d="m100.35,3.48c-3.02.25-3.23.45-3.48,3.48-.25-3.02-.45-3.23-3.48-3.48,3.02-.25,3.23-.45,3.48-3.48.25,3.02.45,3.23,3.48,3.48Z"/>
  </g>
</svg>