<?xml version="1.0" encoding="UTF-8"?>
<svg id="Layer_1" data-name="Layer 1" xmlns="http://www.w3.org/2000/svg" viewBox="0 0 113.67 118.33">
  <defs>
    <style>
      .cls-1 {
        fill: #c58f4a;
      }
    </style>
  </defs>
  <path class="cls-1" d="m2.59,43.45c3.87-.03,7.74-.05,11.61-.09,3.44-.03,6.89-.01,10.33-.13,1.72-.06,3.18.65,4.5,2.02,2.28,2.36,3.88,5.45,5.36,8.66,2.06,4.49,3.74,9.23,5.15,14.13.15.51.32.8.56.96.31.2.65.17.74.16.78-.05,11.97-.12,27.49-.21-3.33,6.23-6.66,12.46-9.99,18.69-16.69.29-28.79.5-29.71.54-.11,0-.5.03-.87-.19-.53-.32-.69-.94-.74-1.11-.29-1-3.63-11.04-8.37-25.25-.91-3.26-3.67-11.34-11.4-16.03-1.59-.97-3.17-1.65-4.64-2.14Z"/>
  <path class="cls-1" d="m113.57,43.46c-1.46.48-3.05,1.17-4.63,2.14-7.73,4.69-10.5,12.78-11.41,16.04-4.75,14.2-8.09,24.25-8.37,25.23-.06.18-.22.79-.75,1.13-.36.22-.75.18-.87.18-.91-.04-11.73-.32-26.62-.71,3.36-6.09,6.7-12.18,10.05-18.27,1.64,0,3.3-.02,4.94-.02,3.74-7.99,7.48-15.96,11.23-23.93.63-.67,1.64-1.54,3.05-1.88.69-.16,1.25-.14,1.44-.14,3.44.14,6.88.1,10.32.14,3.88.04,7.75.06,11.61.1Z"/>
  <path class="cls-1" d="m55.65,26.87c-12.74.06-25.47.13-38.21.19-4.8,4.52-9.6,9.05-14.4,13.57,14.26-.37,28.81-.47,43.63-.26,2.95.04,5.88.09,8.8.16.06-4.55.12-9.1.18-13.66Z"/>
  <path class="cls-1" d="m113.67,40.55c-14.54-.1-29.09-.18-43.63-.28-3.07,0-6.13-.02-9.2-.02.08-4.37.14-8.76.2-13.13,12.76.12,25.49.24,38.25.36,4.79,4.35,9.59,8.7,14.38,13.07Z"/>
  <path class="cls-1" d="m57.08,118.33c-11.2-10.11-28.47-25.77-28.85-26.67-.24-.56-.06-.78-.06-.78.08-.11.26-.14.53-.14,5.89-.02,11.78-.07,17.66-.12.39,0,.66.03.87.6,3.25,8.95,6.52,17.88,9.78,26.81.02.07.03.14.06.3Z"/>
  <path class="cls-1" d="m87.88,91.73c-.75,1.21-17.72,16.61-28.79,26.6.02-.16.04-.24.06-.3,3.26-8.94,6.53-17.86,9.77-26.81.22-.57.49-.59.89-.59,5.87.04,11.77.1,17.66.12.14,0,.24,0,.34.04-.02.32.02.63.08.95Z"/>
  <path class="cls-1" d="m16.13,19.65c-7.02.58-7.49,1.05-8.07,8.07-.58-7.02-1.05-7.49-8.07-8.07,7.02-.58,7.49-1.05,8.07-8.07.58,7.02,1.05,7.49,8.07,8.07Z"/>
  <path class="cls-1" d="m20.48,6.12c-5.32.44-5.68.8-6.12,6.12-.44-5.32-.8-5.68-6.12-6.12,5.32-.44,5.68-.8,6.12-6.12.44,5.32.8,5.68,6.12,6.12Z"/>
</svg>