<?xml version="1.0" encoding="UTF-8"?>
<svg id="Isolation_Mode" data-name="Isolation Mode" xmlns="http://www.w3.org/2000/svg" xmlns:xlink="http://www.w3.org/1999/xlink" viewBox="0 0 86.958 68.393">
  <defs>
    <style>
      .cls-1 {
        fill: #c58f4a20;
      }
    </style>
    <symbol id="New_Symbol" data-name="New Symbol" viewBox="0 0 869.58 683.93">
      <g>
        <g>
          <g>
            <g>
              <g>
                <path class="cls-1" d="m521.51,342h-16.81c-1.02-.71-2.05-1.37-3.11-1.98-.55-.34-1.11-.64-1.68-.95-2.79-1.5-5.69-2.71-8.67-3.62-.64-.2-1.28-.38-1.93-.55-8.22-2.15-16.95-2.09-25.44.32-5.19,1.47-10.03,3.78-14.38,6.79h-16.83c.69-.77,1.39-1.51,2.12-2.24,7.15-7.17,16.08-12.5,26.03-15.31,12.01-3.4,24.4-2.99,35.78.97.69.24,1.37.49,2.05.76,3.07,1.19,6.05,2.66,8.93,4.37.59.35,1.18.72,1.76,1.1,1.28.82,2.53,1.7,3.76,2.63,3.08,2.33,5.89,4.92,8.41,7.71Z"/>
                <path class="cls-1" d="m436.91,342h-16.83c-4.34-3.01-9.19-5.32-14.38-6.79-8.48-2.4-17.22-2.46-25.44-.32-.64.17-1.29.35-1.93.55-2.98.91-5.88,2.12-8.67,3.62-.57.3-1.13.61-1.68.95-1.06.62-2.09,1.28-3.11,1.98h-16.81c2.52-2.8,5.33-5.38,8.41-7.71,1.23-.93,2.49-1.81,3.76-2.63.58-.38,1.17-.74,1.76-1.1,2.87-1.71,5.86-3.18,8.92-4.37.68-.27,1.36-.52,2.05-.76,11.37-3.96,23.77-4.38,35.78-.97,9.96,2.81,18.89,8.13,26.03,15.31.73.73,1.43,1.47,2.12,2.24Z"/>
              </g>
              <g>
                <path class="cls-1" d="m645.37,80.42c-8.42-5.08-17.37-8.39-26.63-10.08C609.76,29.4,573.58,0,531.2,0s-78.21,29.13-87.47,69.8c-3,.39-5.99.96-8.94,1.7-6.41,1.59-12.67,4-18.58,7.23-.98.52-1.96,1.09-2.91,1.66-17.51,10.67-29.94,27.24-35.06,46.72-4.65,17.69-2.74,35.84,5.32,51.69.84,1.68,1.76,3.32,2.75,4.92,1.13,1.88,2.57,3.82,4.27,5.82,7.33,8.57,19.57,18.15,33.85,27.7,3.36,2.25,6.82,4.5,10.37,6.74,35.04,22.06,77.31,42.69,90.13,48.8v38.63c-8.34,1.09-16.31,4.26-23.15,9.49-1.84,1.4-3.57,2.93-5.17,4.54-2.84,2.87-5.29,6.05-7.29,9.46-1.33,2.28-2.49,4.65-3.43,7.1h12.29c.52-1,1.11-1.97,1.73-2.93,2.06-3.17,4.64-6.04,7.67-8.51.32-.27.65-.53.99-.78,6.57-5.03,14.5-7.63,22.71-7.63,3.49,0,7.02.47,10.54,1.44,6.43,1.76,12.15,5.24,16.61,9.92.01,0,.01.01.01.01v.02c2.41,2.5,4.44,5.33,6.02,8.45h12.2c-2.27-6.14-5.78-11.66-10.24-16.29l-.08-.09s-.01,0-.01-.01c-5.82-6.03-13.23-10.52-21.57-12.8-2.88-.79-5.77-1.24-8.65-1.51v-38.53c19.28-9.31,117.33-57.83,136.22-89.02,7.1-11.67,10.47-24.61,10.47-37.49,0-25.67-13.39-51.13-37.41-65.82Zm-200.22,136.82c-3.54-2.17-7.02-4.35-10.37-6.54-17.89-11.6-32.68-23.07-38.52-32.13-.14-.22-.28-.44-.41-.66-2.36-3.86-4.25-7.92-5.69-12.12-3.87-11.37-4.29-23.73-1.12-35.84,4.16-15.84,14.03-29.47,27.9-38.63.7-.47,1.42-.92,2.15-1.37,2.88-1.75,5.88-3.26,8.97-4.53,2.19-.93,4.45-1.73,6.73-2.42,2.31-.7,4.66-1.26,7.02-1.7-.13,1.37-.24,2.74-.29,4.12-.07,1.44-.11,2.9-.11,4.38,0,20.23,14.64,54.91,31.9,88.77,1.86,3.67,3.76,7.33,5.69,10.96,13.99,26.49,28.8,51.43,38.5,67.26-18.32-9.06-47.12-24.06-72.33-39.56Zm86.06,40.49c-7.79-12.54-27.47-44.88-45.19-78.93-2.25-4.32-4.47-8.66-6.63-13-14.37-28.89-26.1-57.36-26.77-74.47-.02-.52-.04-1.03-.04-1.52,0-3.8.25-7.44.77-11.08.14-.97.29-1.94.47-2.91,6.75-37.46,39.3-64.63,77.38-64.63s70.79,27.31,77.37,64.95c.84,4.42,1.25,9,1.25,13.67,0,30.47-41.42,107.92-78.62,167.92Zm131.55-79.79c-13.85,22.87-82.95,60.42-117.13,77.7,25.64-42,75.38-128.34,75.38-165.84,0-2.61-.12-5.17-.34-7.7,6.54,1.6,12.87,4.24,18.89,7.87h0c30.83,18.84,41.26,58.31,23.21,87.97Z"/>
                <path class="cls-1" d="m491.34,127.11c-5.11-19.48-17.56-36.06-35.05-46.72-.96-.58-1.93-1.14-2.93-1.66-5.91-3.23-12.16-5.64-18.57-7.23-2.96-.74-5.95-1.31-8.94-1.7C416.57,29.13,380.48,0,338.36,0s-78.55,29.4-87.53,70.34c-9.26,1.69-18.22,4.99-26.63,10.08-36.09,22.06-48.18,68.41-26.96,103.32,9.45,15.59,38.69,35.51,67.97,52.7,29.3,17.2,58.63,31.65,68.26,36.31v38.53c-2.89.27-5.77.72-8.66,1.51-8.35,2.29-15.77,6.78-21.59,12.84-4.5,4.65-8.02,10.21-10.31,16.36h12.2c1.59-3.1,3.62-5.96,6.02-8.45,4.46-4.71,10.18-8.2,16.64-9.96,11.74-3.21,23.87-.97,33.25,6.19.33.25.66.51.98.78,2.21,1.79,4.16,3.79,5.86,5.97.65.81,1.25,1.66,1.81,2.54.64.96,1.22,1.92,1.75,2.93h12.28c-.94-2.45-2.09-4.83-3.42-7.1-2.02-3.41-4.46-6.6-7.29-9.46-1.6-1.62-3.33-3.14-5.17-4.54-6.85-5.23-14.81-8.4-23.15-9.49v-38.63c12.8-6.11,55.09-26.73,90.13-48.8,3.54-2.24,7.01-4.48,10.37-6.74,14.26-9.56,26.52-19.14,33.84-27.7,1.71-1.99,3.15-3.94,4.28-5.82.98-1.6,1.9-3.24,2.75-4.92,8.06-15.84,9.96-34,5.31-51.69Zm-284.54,50.83c-18.04-29.66-7.61-69.13,23.21-87.96h0c6.03-3.65,12.36-6.28,18.9-7.88-.22,2.54-.35,5.1-.35,7.7,0,37.49,49.75,123.83,75.39,165.84-34.18-17.28-103.29-54.84-117.14-77.7Zm131.55,79.79c-37.2-60.01-78.61-137.45-78.61-167.92,0-4.67.41-9.25,1.25-13.67,3.29-18.82,13.06-35.05,26.81-46.59,13.74-11.53,31.44-18.36,50.57-18.36,38.08,0,70.62,27.17,77.37,64.63.18.98.34,1.95.47,2.91.52,3.63.78,7.28.78,11.08,0,.5-.01,1-.04,1.52-.67,17.11-12.4,45.58-26.78,74.47-2.16,4.34-4.37,8.68-6.62,13-17.72,34.05-37.41,66.39-45.2,78.93Zm135.36-79.82c-.13.22-.26.44-.4.66-5.84,9.06-20.65,20.53-38.52,32.13-3.36,2.18-6.83,4.37-10.37,6.54-25.22,15.5-54.01,30.5-72.35,39.56,9.7-15.83,24.5-40.77,38.5-67.26,1.92-3.63,3.82-7.29,5.7-10.96,17.26-33.86,31.9-68.54,31.9-88.77,0-1.47-.04-2.94-.11-4.38-.07-1.38-.18-2.75-.31-4.12,2.36.44,4.71,1,7.03,1.7,2.28.68,4.52,1.49,6.72,2.42,3.08,1.27,6.08,2.78,8.97,4.53.72.45,1.44.9,2.15,1.37,13.86,9.16,23.73,22.78,27.89,38.63,3.19,12.12,2.75,24.47-1.12,35.84-1.43,4.2-3.33,8.26-5.69,12.12Z"/>
              </g>
            </g>
            <g>
              <path class="cls-1" d="m378.35,335.45c-2.08-3.35-4.55-6.47-7.42-9.26-1.32-1.29-2.73-2.51-4.2-3.66-11.99-9.3-27.5-12.4-42.6-8.53-7.96,2.04-15.13,6.11-20.89,11.63-4.79,4.57-8.61,10.12-11.15,16.36h12.41c1.78-3.15,4.02-5.99,6.64-8.45,4.38-4.14,9.77-7.17,15.77-8.72,11.73-3.01,23.74-.63,32.96,6.52.13.11.25.2.37.31,3.04,2.41,5.64,5.24,7.75,8.35.44.65.85,1.31,1.25,1.98h12.47c-.96-2.27-2.08-4.45-3.36-6.55ZM67.44,252.55c18.83-30.83,58.3-41.25,87.96-23.21,21.91,13.27,57.28,77.24,75.41,112.65h12.47c-16.99-33.71-55.73-106.23-82.09-122.19-11.67-7.1-24.61-10.48-37.51-10.48-25.67,0-51.12,13.39-65.81,37.42-5.09,8.42-8.39,17.37-10.08,26.63-19.02,4.18-35.56,14.22-47.79,28.03v18.71c11.41-18.83,30.57-32.56,53.59-36.59,4.42-.84,9-1.25,13.66-1.25,25.37,0,83.21,28.66,136.49,59.71h21.93c-44.05-26.53-123.01-70.9-158.43-70.9-2.58,0-5.16.13-7.69.35,1.6-6.54,4.22-12.87,7.87-18.9h.01Z"/>
              <g>
                <path class="cls-1" d="m577.5,342h-12.41c-1.79-3.14-4.03-5.99-6.64-8.45h-.01s0-.03-.01-.03c-4.38-4.11-9.77-7.15-15.76-8.69-11.72-3.01-23.73-.63-32.96,6.53-.12.1-.24.19-.37.3-3.04,2.41-5.64,5.24-7.75,8.36-.44.65-.86,1.31-1.25,1.98h-12.48c.95-2.27,2.08-4.45,3.37-6.55,2.07-3.35,4.55-6.46,7.42-9.25,1.32-1.3,2.72-2.52,4.2-3.67,11.98-9.29,27.5-12.39,42.6-8.53,7.95,2.04,15.1,6.1,20.86,11.6t.01.01l.09.09c4.75,4.55,8.55,10.09,11.08,16.3Z"/>
                <path class="cls-1" d="m869.58,301.41v18.71c-3.43-5.68-7.59-10.9-12.33-15.51-10.98-10.71-25.18-18.26-41.26-21.07-4.42-.84-9-1.25-13.67-1.25-25.35,0-83.2,28.66-136.48,59.71h-21.96c44.05-26.52,123.02-70.9,158.44-70.9,2.6,0,5.17.13,7.69.35-1.6-6.54-4.22-12.87-7.86-18.9h-.01c-18.84-30.83-58.3-41.25-87.96-23.21-21.91,13.27-57.28,77.24-75.41,112.65h-12.47c16.99-33.7,55.73-106.23,82.09-122.19,34.91-21.24,81.25-9.14,103.32,26.95,5.09,8.42,8.39,17.37,10.06,26.63,19.03,4.18,35.57,14.23,47.81,28.03Z"/>
              </g>
            </g>
          </g>
          <g>
            <g>
              <path class="cls-1" d="m521.51,342h-16.81c-1.02-.71-2.05-1.37-3.11-1.98-.55-.34-1.11-.64-1.68-.95-2.79-1.5-5.69-2.71-8.67-3.62-.64-.2-1.28-.38-1.93-.55-8.22-2.15-16.95-2.09-25.44.32-5.19,1.47-10.03,3.78-14.38,6.79h-16.83c.69-.77,1.39-1.51,2.12-2.24,7.15-7.17,16.08-12.5,26.03-15.31,12.01-3.4,24.4-2.99,35.78.97.69.24,1.37.49,2.05.76,3.07,1.19,6.05,2.66,8.93,4.37.59.35,1.18.72,1.76,1.1,1.28.82,2.53,1.7,3.76,2.63,3.08,2.33,5.89,4.92,8.41,7.71Z"/>
              <path class="cls-1" d="m436.91,342h-16.83c-4.34-3.01-9.19-5.32-14.38-6.79-8.48-2.4-17.22-2.46-25.44-.32-.64.17-1.29.35-1.93.55-2.98.91-5.88,2.12-8.67,3.62-.57.3-1.13.61-1.68.95-1.06.62-2.09,1.28-3.11,1.98h-16.81c2.52-2.8,5.33-5.38,8.41-7.71,1.23-.93,2.49-1.81,3.76-2.63.58-.38,1.17-.74,1.76-1.1,2.87-1.71,5.86-3.18,8.92-4.37.68-.27,1.36-.52,2.05-.76,11.37-3.96,23.77-4.38,35.78-.97,9.96,2.81,18.89,8.13,26.03,15.31.73.73,1.43,1.47,2.12,2.24Z"/>
            </g>
            <g>
              <path class="cls-1" d="m645.37,80.42c-8.42-5.08-17.37-8.39-26.63-10.08C609.76,29.4,573.58,0,531.2,0s-78.21,29.13-87.47,69.8c-3,.39-5.99.96-8.94,1.7-6.41,1.59-12.67,4-18.58,7.23-.98.52-1.96,1.09-2.91,1.66-17.51,10.67-29.94,27.24-35.06,46.72-4.65,17.69-2.74,35.84,5.32,51.69.84,1.68,1.76,3.32,2.75,4.92,1.13,1.88,2.57,3.82,4.27,5.82,7.33,8.57,19.57,18.15,33.85,27.7,3.36,2.25,6.82,4.5,10.37,6.74,35.04,22.06,77.31,42.69,90.13,48.8v38.63c-8.34,1.09-16.31,4.26-23.15,9.49-1.84,1.4-3.57,2.93-5.17,4.54-2.84,2.87-5.29,6.05-7.29,9.46-1.33,2.28-2.49,4.65-3.43,7.1h12.29c.52-1,1.11-1.97,1.73-2.93,2.06-3.17,4.64-6.04,7.67-8.51.32-.27.65-.53.99-.78,6.57-5.03,14.5-7.63,22.71-7.63,3.49,0,7.02.47,10.54,1.44,6.43,1.76,12.15,5.24,16.61,9.92.01,0,.01.01.01.01v.02c2.41,2.5,4.44,5.33,6.02,8.45h12.2c-2.27-6.14-5.78-11.66-10.24-16.29l-.08-.09s-.01,0-.01-.01c-5.82-6.03-13.23-10.52-21.57-12.8-2.88-.79-5.77-1.24-8.65-1.51v-38.53c19.28-9.31,117.33-57.83,136.22-89.02,7.1-11.67,10.47-24.61,10.47-37.49,0-25.67-13.39-51.13-37.41-65.82Zm-200.22,136.82c-3.54-2.17-7.02-4.35-10.37-6.54-17.89-11.6-32.68-23.07-38.52-32.13-.14-.22-.28-.44-.41-.66-2.36-3.86-4.25-7.92-5.69-12.12-3.87-11.37-4.29-23.73-1.12-35.84,4.16-15.84,14.03-29.47,27.9-38.63.7-.47,1.42-.92,2.15-1.37,2.88-1.75,5.88-3.26,8.97-4.53,2.19-.93,4.45-1.73,6.73-2.42,2.31-.7,4.66-1.26,7.02-1.7-.13,1.37-.24,2.74-.29,4.12-.07,1.44-.11,2.9-.11,4.38,0,20.23,14.64,54.91,31.9,88.77,1.86,3.67,3.76,7.33,5.69,10.96,13.99,26.49,28.8,51.43,38.5,67.26-18.32-9.06-47.12-24.06-72.33-39.56Zm86.06,40.49c-7.79-12.54-27.47-44.88-45.19-78.93-2.25-4.32-4.47-8.66-6.63-13-14.37-28.89-26.1-57.36-26.77-74.47-.02-.52-.04-1.03-.04-1.52,0-3.8.25-7.44.77-11.08.14-.97.29-1.94.47-2.91,6.75-37.46,39.3-64.63,77.38-64.63s70.79,27.31,77.37,64.95c.84,4.42,1.25,9,1.25,13.67,0,30.47-41.42,107.92-78.62,167.92Zm131.55-79.79c-13.85,22.87-82.95,60.42-117.13,77.7,25.64-42,75.38-128.34,75.38-165.84,0-2.61-.12-5.17-.34-7.7,6.54,1.6,12.87,4.24,18.89,7.87h0c30.83,18.84,41.26,58.31,23.21,87.97Z"/>
              <path class="cls-1" d="m491.34,127.11c-5.11-19.48-17.56-36.06-35.05-46.72-.96-.58-1.93-1.14-2.93-1.66-5.91-3.23-12.16-5.64-18.57-7.23-2.96-.74-5.95-1.31-8.94-1.7C416.57,29.13,380.48,0,338.36,0s-78.55,29.4-87.53,70.34c-9.26,1.69-18.22,4.99-26.63,10.08-36.09,22.06-48.18,68.41-26.96,103.32,9.45,15.59,38.69,35.51,67.97,52.7,29.3,17.2,58.63,31.65,68.26,36.31v38.53c-2.89.27-5.77.72-8.66,1.51-8.35,2.29-15.77,6.78-21.59,12.84-4.5,4.65-8.02,10.21-10.31,16.36h12.2c1.59-3.1,3.62-5.96,6.02-8.45,4.46-4.71,10.18-8.2,16.64-9.96,11.74-3.21,23.87-.97,33.25,6.19.33.25.66.51.98.78,2.21,1.79,4.16,3.79,5.86,5.97.65.81,1.25,1.66,1.81,2.54.64.96,1.22,1.92,1.75,2.93h12.28c-.94-2.45-2.09-4.83-3.42-7.1-2.02-3.41-4.46-6.6-7.29-9.46-1.6-1.62-3.33-3.14-5.17-4.54-6.85-5.23-14.81-8.4-23.15-9.49v-38.63c12.8-6.11,55.09-26.73,90.13-48.8,3.54-2.24,7.01-4.48,10.37-6.74,14.26-9.56,26.52-19.14,33.84-27.7,1.71-1.99,3.15-3.94,4.28-5.82.98-1.6,1.9-3.24,2.75-4.92,8.06-15.84,9.96-34,5.31-51.69Zm-284.54,50.83c-18.04-29.66-7.61-69.13,23.21-87.96h0c6.03-3.65,12.36-6.28,18.9-7.88-.22,2.54-.35,5.1-.35,7.7,0,37.49,49.75,123.83,75.39,165.84-34.18-17.28-103.29-54.84-117.14-77.7Zm131.55,79.79c-37.2-60.01-78.61-137.45-78.61-167.92,0-4.67.41-9.25,1.25-13.67,3.29-18.82,13.06-35.05,26.81-46.59,13.74-11.53,31.44-18.36,50.57-18.36,38.08,0,70.62,27.17,77.37,64.63.18.98.34,1.95.47,2.91.52,3.63.78,7.28.78,11.08,0,.5-.01,1-.04,1.52-.67,17.11-12.4,45.58-26.78,74.47-2.16,4.34-4.37,8.68-6.62,13-17.72,34.05-37.41,66.39-45.2,78.93Zm135.36-79.82c-.13.22-.26.44-.4.66-5.84,9.06-20.65,20.53-38.52,32.13-3.36,2.18-6.83,4.37-10.37,6.54-25.22,15.5-54.01,30.5-72.35,39.56,9.7-15.83,24.5-40.77,38.5-67.26,1.92-3.63,3.82-7.29,5.7-10.96,17.26-33.86,31.9-68.54,31.9-88.77,0-1.47-.04-2.94-.11-4.38-.07-1.38-.18-2.75-.31-4.12,2.36.44,4.71,1,7.03,1.7,2.28.68,4.52,1.49,6.72,2.42,3.08,1.27,6.08,2.78,8.97,4.53.72.45,1.44.9,2.15,1.37,13.86,9.16,23.73,22.78,27.89,38.63,3.19,12.12,2.75,24.47-1.12,35.84-1.43,4.2-3.33,8.26-5.69,12.12Z"/>
            </g>
          </g>
        </g>
        <g>
          <g>
            <g>
              <g>
                <path class="cls-1" d="m348.07,341.93h16.81c1.02.71,2.05,1.37,3.11,1.98.55.34,1.11.64,1.68.95,2.79,1.5,5.69,2.71,8.67,3.62.64.2,1.28.38,1.93.55,8.22,2.15,16.95,2.09,25.44-.32,5.19-1.47,10.03-3.78,14.38-6.79h16.83c-.69.77-1.39,1.51-2.12,2.24-7.15,7.17-16.08,12.5-26.03,15.31-12.01,3.4-24.4,2.99-35.78-.97-.69-.24-1.37-.49-2.05-.76-3.07-1.19-6.05-2.66-8.93-4.37-.59-.35-1.18-.72-1.76-1.1-1.28-.82-2.53-1.7-3.76-2.63-3.08-2.33-5.89-4.92-8.41-7.71Z"/>
                <path class="cls-1" d="m432.67,341.93h16.83c4.34,3.01,9.19,5.32,14.38,6.79,8.48,2.4,17.22,2.46,25.44.32.64-.17,1.29-.35,1.93-.55,2.98-.91,5.88-2.12,8.67-3.62.57-.3,1.13-.61,1.68-.95,1.06-.62,2.09-1.28,3.11-1.98h16.81c-2.52,2.8-5.33,5.38-8.41,7.71-1.23.93-2.49,1.81-3.76,2.63-.58.38-1.17.74-1.76,1.1-2.87,1.71-5.86,3.18-8.92,4.37-.68.27-1.36.52-2.05.76-11.37,3.96-23.77,4.38-35.78.97-9.96-2.81-18.89-8.13-26.03-15.31-.73-.73-1.43-1.47-2.12-2.24Z"/>
              </g>
              <g>
                <path class="cls-1" d="m224.2,603.51c8.42,5.08,17.37,8.39,26.63,10.08,8.99,40.94,45.16,70.34,87.54,70.34s78.21-29.13,87.47-69.8c3-.39,5.99-.96,8.94-1.7,6.41-1.59,12.67-4,18.58-7.23.98-.52,1.96-1.09,2.91-1.66,17.51-10.67,29.94-27.24,35.06-46.72,4.65-17.69,2.74-35.84-5.32-51.69-.84-1.68-1.76-3.32-2.75-4.92-1.13-1.88-2.57-3.82-4.27-5.82-7.33-8.57-19.57-18.15-33.85-27.7-3.36-2.25-6.82-4.5-10.37-6.74-35.04-22.06-77.31-42.69-90.13-48.8v-38.63c8.34-1.09,16.31-4.26,23.15-9.49,1.84-1.4,3.57-2.93,5.17-4.54,2.84-2.87,5.29-6.05,7.29-9.46,1.33-2.28,2.49-4.65,3.43-7.1h-12.29c-.52,1-1.11,1.97-1.73,2.93-2.06,3.17-4.64,6.04-7.67,8.51-.32.27-.65.53-.99.78-6.57,5.03-14.5,7.63-22.71,7.63-3.49,0-7.02-.47-10.54-1.44-6.43-1.76-12.15-5.24-16.61-9.92-.01,0-.01-.01-.01-.01v-.02c-2.41-2.5-4.44-5.33-6.02-8.45h-12.2c2.27,6.14,5.78,11.66,10.24,16.29l.08.09s.01,0,.01.01c5.82,6.03,13.23,10.52,21.57,12.8,2.88.79,5.77,1.24,8.65,1.51v38.53c-19.28,9.31-117.33,57.83-136.22,89.02-7.1,11.67-10.47,24.61-10.47,37.49,0,25.67,13.39,51.13,37.41,65.82Zm200.22-136.82c3.54,2.17,7.02,4.35,10.37,6.54,17.89,11.6,32.68,23.07,38.52,32.13.14.22.28.44.41.66,2.36,3.86,4.25,7.92,5.69,12.12,3.87,11.37,4.29,23.73,1.12,35.84-4.16,15.84-14.03,29.47-27.9,38.63-.7.47-1.42.92-2.15,1.37-2.88,1.75-5.88,3.26-8.97,4.53-2.19.93-4.45,1.73-6.73,2.42-2.31.7-4.66,1.26-7.02,1.7.13-1.37.24-2.74.29-4.12.07-1.44.11-2.9.11-4.38,0-20.23-14.64-54.91-31.9-88.77-1.86-3.67-3.76-7.33-5.69-10.96-13.99-26.49-28.8-51.43-38.5-67.26,18.32,9.06,47.12,24.06,72.33,39.56Zm-86.06-40.49c7.79,12.54,27.47,44.88,45.19,78.93,2.25,4.32,4.47,8.66,6.63,13,14.37,28.89,26.1,57.36,26.77,74.47.02.52.04,1.03.04,1.52,0,3.8-.25,7.44-.77,11.08-.14.97-.29,1.94-.47,2.91-6.75,37.46-39.3,64.63-77.38,64.63s-70.79-27.31-77.37-64.95c-.84-4.42-1.25-9-1.25-13.67,0-30.47,41.42-107.92,78.62-167.92Zm-131.55,79.79c13.85-22.87,82.95-60.42,117.13-77.7-25.64,42-75.38,128.34-75.38,165.84,0,2.61.12,5.17.34,7.7-6.54-1.6-12.87-4.24-18.89-7.87h0c-30.83-18.84-41.26-58.31-23.21-87.97Z"/>
                <path class="cls-1" d="m378.24,556.82c5.11,19.48,17.56,36.06,35.05,46.72.96.58,1.93,1.14,2.93,1.66,5.91,3.23,12.16,5.64,18.57,7.23,2.96.74,5.95,1.31,8.94,1.7,9.27,40.67,45.36,69.8,87.48,69.8s78.55-29.4,87.53-70.34c9.26-1.69,18.22-4.99,26.63-10.08,36.09-22.06,48.18-68.41,26.96-103.32-9.45-15.59-38.69-35.51-67.97-52.7-29.3-17.2-58.63-31.65-68.26-36.31v-38.53c2.89-.27,5.77-.72,8.66-1.51,8.35-2.29,15.77-6.78,21.59-12.84,4.5-4.65,8.02-10.21,10.31-16.36h-12.2c-1.59,3.1-3.62,5.96-6.02,8.45-4.46,4.71-10.18,8.2-16.64,9.96-11.74,3.21-23.87.97-33.25-6.19-.33-.25-.66-.51-.98-.78-2.21-1.79-4.16-3.79-5.86-5.97-.65-.81-1.25-1.66-1.81-2.54-.64-.96-1.22-1.92-1.75-2.93h-12.28c.94,2.45,2.09,4.83,3.42,7.1,2.02,3.41,4.46,6.6,7.29,9.46,1.6,1.62,3.33,3.14,5.17,4.54,6.85,5.23,14.81,8.4,23.15,9.49v38.63c-12.8,6.11-55.09,26.73-90.13,48.8-3.54,2.24-7.01,4.48-10.37,6.74-14.26,9.56-26.52,19.14-33.84,27.7-1.71,1.99-3.15,3.94-4.28,5.82-.98,1.6-1.9,3.24-2.75,4.92-8.06,15.84-9.96,34-5.31,51.69Zm284.54-50.83c18.04,29.66,7.61,69.13-23.21,87.96h0c-6.03,3.65-12.36,6.28-18.9,7.88.22-2.54.35-5.1.35-7.7,0-37.49-49.75-123.83-75.39-165.84,34.18,17.28,103.29,54.84,117.14,77.7Zm-131.55-79.79c37.2,60.01,78.61,137.45,78.61,167.92,0,4.67-.41,9.25-1.25,13.67-3.29,18.82-13.06,35.05-26.81,46.59-13.74,11.53-31.44,18.36-50.57,18.36-38.08,0-70.62-27.17-77.37-64.63-.18-.98-.34-1.95-.47-2.91-.52-3.63-.78-7.28-.78-11.08,0-.5.01-1,.04-1.52.67-17.11,12.4-45.58,26.78-74.47,2.16-4.34,4.37-8.68,6.62-13,17.72-34.05,37.41-66.39,45.2-78.93Zm-135.36,79.82c.13-.22.26-.44.4-.66,5.84-9.06,20.65-20.53,38.52-32.13,3.36-2.18,6.83-4.37,10.37-6.54,25.22-15.5,54.01-30.5,72.35-39.56-9.7,15.83-24.5,40.77-38.5,67.26-1.92,3.63-3.82,7.29-5.7,10.96-17.26,33.86-31.9,68.54-31.9,88.77,0,1.47.04,2.94.11,4.38.07,1.38.18,2.75.31,4.12-2.36-.44-4.71-1-7.03-1.7-2.28-.68-4.52-1.49-6.72-2.42-3.08-1.27-6.08-2.78-8.97-4.53-.72-.45-1.44-.9-2.15-1.37-13.86-9.16-23.73-22.78-27.89-38.63-3.19-12.12-2.75-24.47,1.12-35.84,1.43-4.2,3.33-8.26,5.69-12.12Z"/>
              </g>
            </g>
            <g>
              <path class="cls-1" d="m491.23,348.48c2.08,3.35,4.55,6.47,7.42,9.26,1.32,1.29,2.73,2.51,4.2,3.66,11.99,9.3,27.5,12.4,42.6,8.53,7.96-2.04,15.13-6.11,20.89-11.63,4.79-4.57,8.61-10.12,11.15-16.36h-12.41c-1.78,3.15-4.02,5.99-6.64,8.45-4.38,4.14-9.77,7.17-15.77,8.72-11.73,3.01-23.74.63-32.96-6.52-.13-.11-.25-.2-.37-.31-3.04-2.41-5.64-5.24-7.75-8.35-.44-.65-.85-1.31-1.25-1.98h-12.47c.96,2.27,2.08,4.45,3.36,6.55Zm310.91,82.89c-18.83,30.83-58.3,41.25-87.96,23.21-21.91-13.27-57.28-77.24-75.41-112.65h-12.47c16.99,33.71,55.73,106.23,82.09,122.19,11.67,7.1,24.61,10.48,37.51,10.48,25.67,0,51.12-13.39,65.81-37.42,5.09-8.42,8.39-17.37,10.08-26.63,19.02-4.18,35.56-14.22,47.79-28.03v-18.71c-11.41,18.83-30.57,32.56-53.59,36.59-4.42.84-9,1.25-13.66,1.25-25.37,0-83.21-28.66-136.49-59.71h-21.93c44.05,26.53,123.01,70.9,158.43,70.9,2.58,0,5.16-.13,7.69-.35-1.6,6.54-4.22,12.87-7.87,18.9h-.01Z"/>
              <g>
                <path class="cls-1" d="m292.08,341.93h12.41c1.79,3.14,4.03,5.99,6.64,8.45h.01s0,.03.01.03c4.38,4.11,9.77,7.15,15.76,8.69,11.72,3.01,23.73.63,32.96-6.53.12-.1.24-.19.37-.3,3.04-2.41,5.64-5.24,7.75-8.36.44-.65.86-1.31,1.25-1.98h12.48c-.95,2.27-2.08,4.45-3.37,6.55-2.07,3.35-4.55,6.46-7.42,9.25-1.32,1.3-2.72,2.52-4.2,3.67-11.98,9.29-27.5,12.39-42.6,8.53-7.95-2.04-15.1-6.1-20.86-11.6t-.01-.01l-.09-.09c-4.75-4.55-8.55-10.09-11.08-16.3Z"/>
                <path class="cls-1" d="m0,382.52v-18.71c3.43,5.68,7.59,10.9,12.33,15.51,10.98,10.71,25.18,18.26,41.26,21.07,4.42.84,9,1.25,13.67,1.25,25.35,0,83.2-28.66,136.48-59.71h21.96c-44.05,26.52-123.02,70.9-158.44,70.9-2.6,0-5.17-.13-7.69-.35,1.6,6.54,4.22,12.87,7.86,18.9h.01c18.84,30.83,58.3,41.25,87.96,23.21,21.91-13.27,57.28-77.24,75.41-112.65h12.47c-16.99,33.7-55.73,106.23-82.09,122.19-34.91,21.24-81.25,9.14-103.32-26.95-5.09-8.42-8.39-17.37-10.06-26.63-19.03-4.18-35.57-14.23-47.81-28.03Z"/>
              </g>
            </g>
          </g>
          <g>
            <g>
              <path class="cls-1" d="m348.07,341.93h16.81c1.02.71,2.05,1.37,3.11,1.98.55.34,1.11.64,1.68.95,2.79,1.5,5.69,2.71,8.67,3.62.64.2,1.28.38,1.93.55,8.22,2.15,16.95,2.09,25.44-.32,5.19-1.47,10.03-3.78,14.38-6.79h16.83c-.69.77-1.39,1.51-2.12,2.24-7.15,7.17-16.08,12.5-26.03,15.31-12.01,3.4-24.4,2.99-35.78-.97-.69-.24-1.37-.49-2.05-.76-3.07-1.19-6.05-2.66-8.93-4.37-.59-.35-1.18-.72-1.76-1.1-1.28-.82-2.53-1.7-3.76-2.63-3.08-2.33-5.89-4.92-8.41-7.71Z"/>
              <path class="cls-1" d="m432.67,341.93h16.83c4.34,3.01,9.19,5.32,14.38,6.79,8.48,2.4,17.22,2.46,25.44.32.64-.17,1.29-.35,1.93-.55,2.98-.91,5.88-2.12,8.67-3.62.57-.3,1.13-.61,1.68-.95,1.06-.62,2.09-1.28,3.11-1.98h16.81c-2.52,2.8-5.33,5.38-8.41,7.71-1.23.93-2.49,1.81-3.76,2.63-.58.38-1.17.74-1.76,1.1-2.87,1.71-5.86,3.18-8.92,4.37-.68.27-1.36.52-2.05.76-11.37,3.96-23.77,4.38-35.78.97-9.96-2.81-18.89-8.13-26.03-15.31-.73-.73-1.43-1.47-2.12-2.24Z"/>
            </g>
            <g>
              <path class="cls-1" d="m224.2,603.51c8.42,5.08,17.37,8.39,26.63,10.08,8.99,40.94,45.16,70.34,87.54,70.34s78.21-29.13,87.47-69.8c3-.39,5.99-.96,8.94-1.7,6.41-1.59,12.67-4,18.58-7.23.98-.52,1.96-1.09,2.91-1.66,17.51-10.67,29.94-27.24,35.06-46.72,4.65-17.69,2.74-35.84-5.32-51.69-.84-1.68-1.76-3.32-2.75-4.92-1.13-1.88-2.57-3.82-4.27-5.82-7.33-8.57-19.57-18.15-33.85-27.7-3.36-2.25-6.82-4.5-10.37-6.74-35.04-22.06-77.31-42.69-90.13-48.8v-38.63c8.34-1.09,16.31-4.26,23.15-9.49,1.84-1.4,3.57-2.93,5.17-4.54,2.84-2.87,5.29-6.05,7.29-9.46,1.33-2.28,2.49-4.65,3.43-7.1h-12.29c-.52,1-1.11,1.97-1.73,2.93-2.06,3.17-4.64,6.04-7.67,8.51-.32.27-.65.53-.99.78-6.57,5.03-14.5,7.63-22.71,7.63-3.49,0-7.02-.47-10.54-1.44-6.43-1.76-12.15-5.24-16.61-9.92-.01,0-.01-.01-.01-.01v-.02c-2.41-2.5-4.44-5.33-6.02-8.45h-12.2c2.27,6.14,5.78,11.66,10.24,16.29l.08.09s.01,0,.01.01c5.82,6.03,13.23,10.52,21.57,12.8,2.88.79,5.77,1.24,8.65,1.51v38.53c-19.28,9.31-117.33,57.83-136.22,89.02-7.1,11.67-10.47,24.61-10.47,37.49,0,25.67,13.39,51.13,37.41,65.82Zm200.22-136.82c3.54,2.17,7.02,4.35,10.37,6.54,17.89,11.6,32.68,23.07,38.52,32.13.14.22.28.44.41.66,2.36,3.86,4.25,7.92,5.69,12.12,3.87,11.37,4.29,23.73,1.12,35.84-4.16,15.84-14.03,29.47-27.9,38.63-.7.47-1.42.92-2.15,1.37-2.88,1.75-5.88,3.26-8.97,4.53-2.19.93-4.45,1.73-6.73,2.42-2.31.7-4.66,1.26-7.02,1.7.13-1.37.24-2.74.29-4.12.07-1.44.11-2.9.11-4.38,0-20.23-14.64-54.91-31.9-88.77-1.86-3.67-3.76-7.33-5.69-10.96-13.99-26.49-28.8-51.43-38.5-67.26,18.32,9.06,47.12,24.06,72.33,39.56Zm-86.06-40.49c7.79,12.54,27.47,44.88,45.19,78.93,2.25,4.32,4.47,8.66,6.63,13,14.37,28.89,26.1,57.36,26.77,74.47.02.52.04,1.03.04,1.52,0,3.8-.25,7.44-.77,11.08-.14.97-.29,1.94-.47,2.91-6.75,37.46-39.3,64.63-77.38,64.63s-70.79-27.31-77.37-64.95c-.84-4.42-1.25-9-1.25-13.67,0-30.47,41.42-107.92,78.62-167.92Zm-131.55,79.79c13.85-22.87,82.95-60.42,117.13-77.7-25.64,42-75.38,128.34-75.38,165.84,0,2.61.12,5.17.34,7.7-6.54-1.6-12.87-4.24-18.89-7.87h0c-30.83-18.84-41.26-58.31-23.21-87.97Z"/>
              <path class="cls-1" d="m378.24,556.82c5.11,19.48,17.56,36.06,35.05,46.72.96.58,1.93,1.14,2.93,1.66,5.91,3.23,12.16,5.64,18.57,7.23,2.96.74,5.95,1.31,8.94,1.7,9.27,40.67,45.36,69.8,87.48,69.8s78.55-29.4,87.53-70.34c9.26-1.69,18.22-4.99,26.63-10.08,36.09-22.06,48.18-68.41,26.96-103.32-9.45-15.59-38.69-35.51-67.97-52.7-29.3-17.2-58.63-31.65-68.26-36.31v-38.53c2.89-.27,5.77-.72,8.66-1.51,8.35-2.29,15.77-6.78,21.59-12.84,4.5-4.65,8.02-10.21,10.31-16.36h-12.2c-1.59,3.1-3.62,5.96-6.02,8.45-4.46,4.71-10.18,8.2-16.64,9.96-11.74,3.21-23.87.97-33.25-6.19-.33-.25-.66-.51-.98-.78-2.21-1.79-4.16-3.79-5.86-5.97-.65-.81-1.25-1.66-1.81-2.54-.64-.96-1.22-1.92-1.75-2.93h-12.28c.94,2.45,2.09,4.83,3.42,7.1,2.02,3.41,4.46,6.6,7.29,9.46,1.6,1.62,3.33,3.14,5.17,4.54,6.85,5.23,14.81,8.4,23.15,9.49v38.63c-12.8,6.11-55.09,26.73-90.13,48.8-3.54,2.24-7.01,4.48-10.37,6.74-14.26,9.56-26.52,19.14-33.84,27.7-1.71,1.99-3.15,3.94-4.28,5.82-.98,1.6-1.9,3.24-2.75,4.92-8.06,15.84-9.96,34-5.31,51.69Zm284.54-50.83c18.04,29.66,7.61,69.13-23.21,87.96h0c-6.03,3.65-12.36,6.28-18.9,7.88.22-2.54.35-5.1.35-7.7,0-37.49-49.75-123.83-75.39-165.84,34.18,17.28,103.29,54.84,117.14,77.7Zm-131.55-79.79c37.2,60.01,78.61,137.45,78.61,167.92,0,4.67-.41,9.25-1.25,13.67-3.29,18.82-13.06,35.05-26.81,46.59-13.74,11.53-31.44,18.36-50.57,18.36-38.08,0-70.62-27.17-77.37-64.63-.18-.98-.34-1.95-.47-2.91-.52-3.63-.78-7.28-.78-11.08,0-.5.01-1,.04-1.52.67-17.11,12.4-45.58,26.78-74.47,2.16-4.34,4.37-8.68,6.62-13,17.72-34.05,37.41-66.39,45.2-78.93Zm-135.36,79.82c.13-.22.26-.44.4-.66,5.84-9.06,20.65-20.53,38.52-32.13,3.36-2.18,6.83-4.37,10.37-6.54,25.22-15.5,54.01-30.5,72.35-39.56-9.7,15.83-24.5,40.77-38.5,67.26-1.92,3.63-3.82,7.29-5.7,10.96-17.26,33.86-31.9,68.54-31.9,88.77,0,1.47.04,2.94.11,4.38.07,1.38.18,2.75.31,4.12-2.36-.44-4.71-1-7.03-1.7-2.28-.68-4.52-1.49-6.72-2.42-3.08-1.27-6.08-2.78-8.97-4.53-.72-.45-1.44-.9-2.15-1.37-13.86-9.16-23.73-22.78-27.89-38.63-3.19-12.12-2.75-24.47,1.12-35.84,1.43-4.2,3.33-8.26,5.69-12.12Z"/>
            </g>
          </g>
        </g>
      </g>
    </symbol>
  </defs>
  <use width="86.958" height="68.393" xlink:href="#New_Symbol"/>
</svg>